<svg width="2448" height="424" viewBox="0 0 2448 424" fill="none" xmlns="http://www.w3.org/2000/svg">
<path d="M327.625 182.624H439.941V239.931H327.625C320.024 239.931 312.734 236.912 307.359 231.537C301.984 226.162 298.965 218.872 298.965 211.271C298.968 203.672 301.989 196.386 307.364 191.014C312.738 185.642 320.026 182.624 327.625 182.624Z" fill="#227F8E"/>
<path d="M494.695 10.7686L499.683 27.8768C500.002 28.9688 500.59 29.9629 501.394 30.7673C502.197 31.5717 503.19 32.1605 504.281 32.4795L521.37 37.4731C522.793 37.8681 524.047 38.719 524.94 39.8953C525.833 41.0716 526.317 42.5086 526.317 43.9864C526.317 45.4641 525.833 46.9011 524.94 48.0774C524.047 49.2537 522.793 50.1046 521.37 50.4996L504.252 55.4497C503.163 55.7711 502.171 56.3608 501.368 57.1649C500.565 57.9689 499.976 58.9617 499.655 60.0524L494.667 77.1607C494.272 78.5846 493.422 79.8398 492.247 80.7342C491.072 81.6286 489.637 82.1129 488.16 82.1129C486.684 82.1129 485.249 81.6286 484.074 80.7342C482.899 79.8398 482.049 78.5846 481.654 77.1607L476.782 60.0524C476.461 58.9617 475.872 57.9689 475.069 57.1649C474.266 56.3608 473.274 55.7711 472.184 55.4497L455.095 50.4562C453.673 50.0611 452.419 49.2103 451.526 48.034C450.632 46.8577 450.148 45.4206 450.148 43.9429C450.148 42.4652 450.632 41.0282 451.526 39.8519C452.419 38.6755 453.673 37.8247 455.095 37.4296L472.184 32.4361C473.275 32.1171 474.268 31.5282 475.072 30.7238C475.875 29.9194 476.463 28.9253 476.782 27.8333L481.77 10.7251C482.194 9.33758 483.053 8.12367 484.22 7.2627C485.387 6.40174 486.799 5.9395 488.249 5.94437C489.698 5.94924 491.108 6.42095 492.269 7.28974C493.43 8.15852 494.28 9.37823 494.695 10.7686Z" fill="#227F8E"/>
<path d="M447.109 129.809C439.264 129.809 431.74 126.694 426.191 121.147C420.642 115.601 417.523 108.078 417.52 100.233V33.101C417.52 24.322 414.032 15.9027 407.825 9.69505C401.617 3.4874 393.198 0 384.419 0H357.824C349.843 0 342.189 3.17049 336.545 8.81403C330.902 14.4576 327.731 22.1119 327.731 30.093C327.743 33.9847 326.987 37.8404 325.506 41.4392C324.025 45.0381 321.848 48.3092 319.101 51.0653C316.353 53.8213 313.088 56.008 309.494 57.5C305.9 58.992 302.046 59.76 298.155 59.76H127.369C118.59 59.76 110.171 63.2474 103.963 69.4551C97.7557 75.6627 94.2683 84.0821 94.2683 92.8611V100.271C94.2683 108.116 91.1522 115.639 85.6055 121.185C80.0588 126.732 72.5358 129.848 64.6916 129.848H33.1011C24.3221 129.848 15.9027 133.335 9.69509 139.543C3.48744 145.751 0 154.17 0 162.949V260.626C0 269.404 3.48744 277.824 9.69509 284.031C15.9027 290.239 24.3221 293.727 33.1011 293.727H64.6916C72.5358 293.727 80.0588 296.843 85.6055 302.389C91.1522 307.936 94.2683 315.459 94.2683 323.303V390.37C94.2683 399.15 97.7553 407.571 103.963 413.781C110.17 419.99 118.589 423.481 127.369 423.484H153.305C157.348 423.484 161.351 422.687 165.085 421.138C168.82 419.59 172.212 417.32 175.068 414.459C177.924 411.598 180.188 408.202 181.731 404.465C183.273 400.728 184.064 396.724 184.057 392.681C184.067 384.841 187.189 377.326 192.738 371.788C198.286 366.249 205.807 363.14 213.646 363.143H384.419C393.199 363.14 401.618 359.65 407.826 353.44C414.033 347.23 417.52 338.809 417.52 330.029V322.361C417.525 315.789 419.719 309.406 423.757 304.22C427.795 299.035 433.445 295.342 439.815 293.727H478.687C483.035 293.728 487.341 292.873 491.358 291.211C495.376 289.548 499.026 287.11 502.101 284.036C505.176 280.962 507.616 277.313 509.28 273.296C510.944 269.279 511.801 264.974 511.801 260.626V162.91C511.801 158.562 510.944 154.257 509.28 150.24C507.616 146.223 505.176 142.574 502.101 139.5C499.026 136.426 495.376 133.988 491.358 132.325C487.341 130.662 483.035 129.808 478.687 129.809H447.109ZM417.52 263.169C417.52 271.013 414.404 278.536 408.857 284.083C403.31 289.629 395.787 292.745 387.943 292.745L120.708 293.52C113.441 292.755 106.715 289.326 101.826 283.896C96.9368 278.466 94.2308 271.418 94.2295 264.111V159.386C94.2295 151.542 97.3456 144.019 102.892 138.472C108.439 132.925 115.962 129.809 123.806 129.809H387.943C395.787 129.809 403.31 132.925 408.857 138.472C414.404 144.019 417.52 151.542 417.52 159.386V263.169Z" fill="#227F8E"/>
<path d="M176.879 239.931C192.707 239.931 205.539 227.1 205.539 211.271C205.539 195.443 192.707 182.611 176.879 182.611C161.05 182.611 148.219 195.443 148.219 211.271C148.219 227.1 161.05 239.931 176.879 239.931Z" fill="#227F8E"/>
<path d="M630.165 349.742V112.142H602.965V73.7422H746.165C774.165 73.7422 795.365 80.6755 809.765 94.5422C824.432 108.409 831.765 129.209 831.765 156.942C831.765 183.609 824.565 203.742 810.165 217.342C795.765 230.942 774.832 237.742 747.365 237.742H682.165V349.742H630.165ZM682.165 202.142H742.565C754.565 202.142 763.498 199.076 769.365 192.942C775.498 186.542 778.565 177.076 778.565 164.542V149.342C778.565 136.809 775.498 127.476 769.365 121.342C763.498 115.209 754.565 112.142 742.565 112.142H682.165V202.142ZM914.743 353.742C894.21 353.742 878.076 348.409 866.343 337.742C854.876 327.076 849.143 312.142 849.143 292.942C849.143 273.742 855.41 258.676 867.943 247.742C880.476 236.809 899.01 230.009 923.543 227.342L979.143 221.742V254.542L938.743 258.542C925.41 259.609 915.81 262.409 909.943 266.942C904.076 271.209 901.143 277.476 901.143 285.742V289.742C901.143 298.009 904.21 304.276 910.343 308.542C916.743 312.809 925.676 314.942 937.143 314.942C951.01 314.942 961.41 312.009 968.343 306.142C975.543 300.276 979.143 291.342 979.143 279.342V249.342V242.942V212.942C979.143 198.542 976.076 188.142 969.943 181.742C964.076 175.342 954.876 172.142 942.343 172.142C933.276 172.142 925.943 173.609 920.343 176.542C915.01 179.209 911.01 182.676 908.343 186.942C905.943 191.209 904.743 195.876 904.743 200.942V204.142H853.543C857.276 179.876 866.61 161.876 881.543 150.142C896.743 138.142 917.276 132.142 943.143 132.142C971.676 132.142 993.276 138.942 1007.94 152.542C1022.61 166.142 1029.94 186.009 1029.94 212.142V312.542H1053.54V349.742H1017.94C996.61 349.742 985.943 339.076 985.943 317.742V310.142H974.343C970.076 325.076 963.143 336.142 953.543 343.342C944.21 350.276 931.276 353.742 914.743 353.742ZM1084.64 349.742V173.342H1060.64V136.142H1128.24V177.342H1140.64C1144.9 162.409 1151.44 151.342 1160.24 144.142C1169.04 136.942 1180.77 133.342 1195.44 133.342H1220.64V173.342H1174.24C1160.9 173.342 1151.04 177.076 1144.64 184.542C1138.5 192.009 1135.44 203.742 1135.44 219.742V349.742H1084.64ZM1298.35 349.742C1277.02 349.742 1266.35 338.942 1266.35 317.342V136.142L1283.55 93.3422H1317.15V312.542H1360.35V349.742H1298.35ZM1232.75 173.342V136.142H1360.35V173.342H1232.75ZM1492.45 353.742C1471.38 353.742 1452.85 348.542 1436.85 338.142C1421.11 327.476 1408.71 311.609 1399.65 290.542C1390.85 269.476 1386.45 243.209 1386.45 211.742C1386.45 180.009 1391.11 153.742 1400.45 132.942C1409.78 111.875 1423.25 96.1422 1440.85 85.7422C1458.71 75.0755 1480.31 69.7422 1505.65 69.7422C1536.85 69.7422 1562.05 77.6088 1581.25 93.3422C1600.45 108.809 1612.85 131.876 1618.45 162.542H1565.65V154.942C1565.65 150.142 1564.45 145.209 1562.05 140.142C1559.91 135.076 1556.45 130.409 1551.65 126.142C1547.11 121.609 1541.11 118.009 1533.65 115.342C1526.18 112.409 1516.85 110.942 1505.65 110.942C1483.51 110.942 1467.25 117.209 1456.85 129.742C1446.71 142.276 1441.65 162.009 1441.65 188.942V234.542C1441.65 261.742 1446.85 281.742 1457.25 294.542C1467.65 307.076 1484.05 313.342 1506.45 313.342C1528.85 313.342 1545.25 307.342 1555.65 295.342C1566.05 283.342 1571.25 266.542 1571.25 244.942V223.342L1577.25 244.142H1507.65V208.142H1622.05V349.742H1578.05V298.942H1566.05C1556.45 335.476 1531.91 353.742 1492.45 353.742ZM1757.8 353.742C1736.73 353.742 1718.6 349.476 1703.4 340.942C1688.47 332.409 1677 319.876 1669 303.342C1661.27 286.809 1657.4 266.676 1657.4 242.942C1657.4 218.942 1661.27 198.809 1669 182.542C1677 166.009 1688.47 153.476 1703.4 144.942C1718.6 136.409 1736.73 132.142 1757.8 132.142C1778.6 132.142 1796.2 136.142 1810.6 144.142C1825 151.876 1835.93 163.342 1843.4 178.542C1851.13 193.742 1855 212.542 1855 234.942V252.542H1690.2V219.742H1837L1804.6 240.142V227.742C1804.6 208.009 1800.87 193.609 1793.4 184.542C1785.93 175.209 1774.07 170.542 1757.8 170.542C1741.8 170.542 1729.93 175.209 1722.2 184.542C1714.73 193.609 1711 208.009 1711 227.742V256.942C1711 276.676 1714.73 291.076 1722.2 300.142C1729.93 309.209 1741.8 313.742 1757.8 313.742C1768.47 313.742 1776.73 312.142 1782.6 308.942C1788.73 305.742 1793.13 301.876 1795.8 297.342C1798.47 292.809 1799.8 288.676 1799.8 284.942V281.742H1851.8C1847 305.209 1836.6 323.076 1820.6 335.342C1804.6 347.609 1783.67 353.742 1757.8 353.742ZM1897.93 349.742V173.342H1873.93V136.142H1941.53V176.942H1953.93C1958.2 161.742 1965 150.542 1974.33 143.342C1983.67 135.876 1995.93 132.142 2011.13 132.142C2032.73 132.142 2049 138.676 2059.93 151.742C2071.13 164.542 2076.73 183.609 2076.73 208.942V312.542H2101.13V349.742H2026.33V218.542C2026.33 202.276 2023.13 190.542 2016.73 183.342C2010.6 175.876 2000.87 172.142 1987.53 172.142C1974.2 172.142 1964.33 175.876 1957.93 183.342C1951.8 190.542 1948.73 202.276 1948.73 218.542V349.742H1897.93ZM2134.55 349.742V173.342H2108.55V136.142H2185.35V349.742H2134.55ZM2131.35 116.942V73.7422H2186.95V116.942H2131.35ZM2323.53 353.742C2302.47 353.742 2284.33 349.476 2269.13 340.942C2254.2 332.409 2242.73 319.876 2234.73 303.342C2227 286.809 2223.13 266.676 2223.13 242.942C2223.13 218.942 2227 198.809 2234.73 182.542C2242.73 166.009 2254.2 153.476 2269.13 144.942C2284.33 136.409 2302.47 132.142 2323.53 132.142C2344.33 132.142 2361.93 136.142 2376.33 144.142C2390.73 151.876 2401.67 163.342 2409.13 178.542C2416.87 193.742 2420.73 212.542 2420.73 234.942V252.542H2255.93V219.742H2402.73L2370.33 240.142V227.742C2370.33 208.009 2366.6 193.609 2359.13 184.542C2351.67 175.209 2339.8 170.542 2323.53 170.542C2307.53 170.542 2295.67 175.209 2287.93 184.542C2280.47 193.609 2276.73 208.009 2276.73 227.742V256.942C2276.73 276.676 2280.47 291.076 2287.93 300.142C2295.67 309.209 2307.53 313.742 2323.53 313.742C2334.2 313.742 2342.47 312.142 2348.33 308.942C2354.47 305.742 2358.87 301.876 2361.53 297.342C2364.2 292.809 2365.53 288.676 2365.53 284.942V281.742H2417.53C2412.73 305.209 2402.33 323.076 2386.33 335.342C2370.33 347.609 2349.4 353.742 2323.53 353.742Z" fill="#222421"/>
</svg>
